<?xml version="1.0" encoding="utf-8"?>
<!-- Generator: Adobe Illustrator 18.1.0, SVG Export Plug-In . SVG Version: 6.00 Build 0)  -->
<!DOCTYPE svg PUBLIC "-//W3C//DTD SVG 1.1//EN" "http://www.w3.org/Graphics/SVG/1.1/DTD/svg11.dtd">
<svg version="1.1" id="Layer_1" xmlns="http://www.w3.org/2000/svg" xmlns:xlink="http://www.w3.org/1999/xlink" x="0px" y="0px"
	 viewBox="0 0 120 22.3" enable-background="new 0 0 120 22.3" xml:space="preserve">
<g>
	<path d="M114.2,12.7c0,0.1,0,0.3-0.1,0.4c0,0.1,0,0.2,0,0.3c0,0.1,0.1,0.2,0.2,0.3c0.1,0.1,0.3,0.2,0.5,0.3
		c0.2,0.1,0.4,0.1,0.6,0.1c0.1,0,0.2,0,0.2-0.1c0.1-0.2,0.1-0.4,0.1-0.5c0.3-1.5,0.5-3.1,0.7-4.6c0.2,1.4,0.3,2.9,0.5,4.3
		c0,0.2,0,0.4,0.1,0.6c0.1,0.3,0.3,0.5,0.5,0.6c0.3,0.2,0.6,0.3,1,0.3c0.1,0,0.1,0,0.1-0.1c0-0.1,0-0.1,0-0.2c0-0.1,0-0.1,0-0.2
		c0-0.1,0-0.1,0-0.2c0-0.1,0-0.2,0.1-0.4c0.4-1.9,0.8-3.8,1.2-5.7c0-0.1,0-0.3,0-0.4c0-0.1,0-0.1-0.1-0.2c0-0.1-0.1-0.1-0.2-0.2
		c-0.2-0.2-0.5-0.4-0.8-0.5c0,0-0.1,0-0.2,0c0,0-0.1,0-0.1,0c0,0,0,0.1-0.1,0.1c0,0,0,0.1,0,0.2c-0.3,1.3-0.5,2.6-0.6,4
		c-0.1-0.9-0.2-1.8-0.3-2.6c0-0.3-0.1-0.7-0.2-1c0-0.2-0.1-0.4-0.2-0.6c-0.1-0.2-0.4-0.4-0.6-0.6c-0.1-0.1-0.3-0.2-0.4-0.2
		c-0.1-0.1-0.2-0.1-0.3-0.1c-0.1,0-0.2,0.1-0.3,0.2C115,8.2,114.5,10.4,114.2,12.7L114.2,12.7z"/>
	<path d="M109.7,9.9l-0.2,0.9l-0.1,0.6c0,0.1,0,0.2,0,0.3c0,0.1,0,0.3,0.1,0.4c0.1,0.2,0.2,0.5,0.3,0.7c0.1,0.2,0.3,0.3,0.5,0.4
		c0.4,0.1,0.7,0.1,1.1,0.2c0.5,0,1,0.1,1.5,0.2c0.1,0,0.2-0.1,0.3-0.2c0.1-0.2,0.2-0.4,0.2-0.5c0-0.2,0.1-0.3,0.1-0.5
		c0-0.1,0-0.2,0-0.3c0,0,0-0.1,0-0.1c0-0.2-0.2-0.3-0.3-0.3c-0.5-0.1-1.1-0.3-1.7-0.3l0.2-0.9c0.5,0.1,1,0.2,1.6,0.3
		c0.1,0,0.2,0,0.2,0s0.1-0.1,0.2-0.2c0.1-0.4,0.2-0.8,0.3-1.2c0-0.1,0-0.2,0-0.3c-0.1-0.1-0.1-0.1-0.2-0.2c-0.5-0.1-1-0.3-1.5-0.4
		c0-0.3,0.1-0.5,0.1-0.8c0-0.1-0.1-0.3-0.2-0.4l-0.6-0.5c0.8,0.2,1.7,0.4,2.5,0.6c0,0,0.1,0,0.1,0c0,0,0.1,0,0.1,0l0.1-0.1
		c0,0,0-0.1,0-0.1c0.1-0.3,0.2-0.7,0.2-1.1c0-0.1,0-0.3,0-0.4c0-0.1-0.1-0.1-0.2-0.2c-1.1-0.4-2.3-0.7-3.5-0.9c-0.1,0-0.1,0-0.2,0
		c0,0-0.1,0.1-0.1,0.2c-0.1,0.5-0.2,0.9-0.3,1.4v0.2c0,0.1,0,0.1,0.1,0.1c0,0,0.1,0,0.1,0.1c0.1,0,0.2,0,0.3,0.1
		c-0.1,0.5-0.2,1-0.3,1.5l-0.3,0c-0.1,0-0.2,0-0.2,0.1c0,0-0.1,0.1-0.1,0.1c-0.1,0.4-0.2,0.9-0.2,1.3c0,0.1,0,0.1,0,0.2
		c0,0,0,0.1,0.1,0.1C109.5,9.8,109.6,9.8,109.7,9.9L109.7,9.9z"/>
	<path d="M105.5,10.3c0-0.2,0.1-0.4,0.1-0.5c0-0.1,0-0.2-0.1-0.2c-0.1-0.1-0.2-0.1-0.3-0.1c-0.3,0-0.6,0-1,0.1
		c-0.2,0-0.3,0.2-0.4,0.3c-0.1,0.5-0.2,1.1-0.2,1.6c0,0.2,0,0.4,0.2,0.6c0.1,0.2,0.3,0.3,0.5,0.4c0.8,0.3,1.8,0.3,2.6,0
		c0.5-0.2,0.9-0.6,1.1-1.1c0.2-0.5,0.3-1,0.2-1.4c-0.1-0.6-0.2-1.2-0.5-1.7c-0.3-0.6-0.5-1.2-0.8-1.8c0-0.1,0-0.2,0-0.3
		c0-0.1,0.1-0.2,0.2-0.2c0.2-0.1,0.5-0.1,0.7-0.1c0,0.1-0.1,0.3-0.1,0.4c0,0.1,0.1,0.2,0.2,0.2c0.3,0.1,0.6,0.1,1,0.1
		c0.1,0,0.2-0.1,0.3-0.2c0.1-0.1,0.1-0.2,0.1-0.3c0.1-0.4,0.1-0.7,0.1-1.1c0-0.2,0-0.4-0.1-0.6c-0.1-0.2-0.3-0.3-0.5-0.4
		c-0.8-0.3-1.7-0.2-2.5,0.1c-0.5,0.2-0.8,0.5-1.1,1c-0.3,0.5-0.3,1.1-0.2,1.6c0.2,0.6,0.5,1.1,0.7,1.7c0.2,0.3,0.3,0.7,0.4,1
		c0.1,0.1,0.1,0.3,0.1,0.5c0,0.2,0,0.3-0.1,0.5c-0.1,0.1-0.2,0.2-0.3,0.2C105.8,10.4,105.7,10.4,105.5,10.3L105.5,10.3z"/>
	<path d="M94.2,7.8c-0.3,1-0.5,2-0.8,3.1c0,0.1,0,0.2,0,0.3c0,0.1,0.1,0.2,0.1,0.3c0.5,0.3,1,0.4,1.6,0.4c0.1,0,0.2,0,0.3-0.1
		c0.1-0.1,0.1-0.3,0.2-0.4l0.1-0.3c0.2-1,0.5-2,0.7-3c0.3-1,0.5-1.9,0.8-2.9L97,8.3l-0.1,2.6c0,0.2,0,0.3,0.1,0.5
		c0.1,0.2,0.2,0.3,0.4,0.4c0.3,0.1,0.7,0.2,1,0.2c0.1,0,0.2,0,0.3-0.1c0.2-0.1,0.3-0.3,0.4-0.5c0.4-0.9,0.8-1.8,1.2-2.7l0.1-0.2
		l0.8-2l0.4-1c0,0.3-0.1,0.5-0.1,0.8l-0.3,2.4l-0.3,2.7c0,0.2,0,0.3,0.1,0.4c0.1,0.1,0.2,0.2,0.4,0.2c0.3,0.1,0.6,0.1,0.9,0.1
		c0.1,0,0.3,0,0.4-0.1c0.1-0.1,0.2-0.3,0.2-0.4c0.1-0.5,0.1-1.1,0.2-1.6l0.3-3.6l0.2-2.2c0-0.2,0-0.4,0-0.5s-0.1-0.3-0.2-0.5
		c-0.2-0.2-0.4-0.3-0.7-0.4c-0.2-0.1-0.4-0.2-0.6-0.2c-0.1-0.1-0.3-0.1-0.5,0c-0.2,0.1-0.4,0.3-0.5,0.5c-0.1,0.2-0.3,0.5-0.4,0.7
		l-2.1,4.6l0.1-2.1l0.1-2.8c0-0.2,0-0.3-0.1-0.5c0-0.1-0.1-0.2-0.2-0.3c-0.1-0.1-0.3-0.3-0.5-0.3c-0.5-0.2-1-0.3-1.5-0.4
		c-0.2,0-0.3,0-0.5,0.1C96.1,1.9,96,2,96,2.1c-0.4,1-0.7,2-1,3.1C94.7,6.1,94.4,6.9,94.2,7.8L94.2,7.8z"/>
	<path d="M87.2,7.7l-0.3,1.2c-0.1,0.3-0.1,0.6-0.2,0.8c0,0.1,0,0.2,0,0.3c0,0.1,0.1,0.2,0.1,0.3c0.1,0.3,0.3,0.5,0.5,0.7
		c0.1,0.1,0.2,0.2,0.3,0.2c0.1,0,0.3,0.1,0.4,0.1c0.5,0,0.9,0,1.4,0l1.9,0c0.2,0,0.4,0,0.5-0.1c0.1,0,0.2-0.1,0.3-0.2
		c0.1-0.1,0.1-0.3,0.2-0.4c0.1-0.3,0.1-0.6,0.2-0.9c0-0.2,0-0.3,0-0.5c0-0.1-0.1-0.2-0.2-0.2c-0.1,0-0.3-0.1-0.4-0.1
		c-0.4,0-0.7,0-1.1-0.1c-0.4,0-0.9,0-1.3,0l0.3-1.2c0.7,0,1.4,0,2.1,0.1c0.1,0,0.2,0,0.4,0c0.2,0,0.4-0.2,0.5-0.4
		c0.1-0.3,0.2-0.6,0.2-0.9c0.1-0.2,0.1-0.4,0.1-0.7c0-0.1-0.1-0.2-0.1-0.2c-0.1,0-0.1-0.1-0.2-0.1c-0.8-0.1-1.5-0.2-2.2-0.2l0.1-0.8
		c0-0.1,0-0.1,0-0.2c0-0.1-0.1-0.2-0.2-0.3S90.3,4.1,90.2,4l-0.9-0.4c1.3,0.1,2.5,0.2,3.8,0.3c0.1,0,0.1,0,0.2-0.1
		c0.1,0,0.1-0.1,0.2-0.2c0.1-0.3,0.2-0.6,0.3-0.9c0.1-0.3,0.1-0.6,0.1-0.8c0-0.1-0.1-0.2-0.2-0.2c-0.1,0-0.2-0.1-0.3-0.1
		c-1.3-0.2-2.5-0.3-3.8-0.4c-0.4,0-0.9,0-1.3-0.1c-0.1,0-0.1,0-0.2,0.1C88,1.2,88,1.3,88,1.4c-0.2,0.6-0.3,1.2-0.5,1.8
		c0,0.1,0,0.1,0.1,0.2c0.1,0,0.2,0.1,0.3,0.1c0.2,0,0.3,0,0.5,0l-0.2,0.6l-0.3,1.2h-0.2h-0.2c-0.2,0-0.3,0-0.4,0.2
		C87,5.6,87,5.6,87,5.7c-0.1,0.2-0.2,0.5-0.2,0.8c-0.1,0.3-0.1,0.6-0.1,0.9c0,0.1,0,0.1,0.1,0.2c0.1,0.1,0.1,0.1,0.2,0.1
		C87,7.7,87.1,7.7,87.2,7.7L87.2,7.7z"/>
	<path d="M77.3,9.1c-0.2,0.6-0.3,1.2-0.4,1.8c0,0.1,0,0.3,0,0.4c0,0,0.1,0.1,0.1,0.1c0.1,0,0.2,0.1,0.3,0.1c0.6,0.1,1.1,0.2,1.7,0.2
		c0.2,0,0.3,0,0.5-0.1c0.2-0.1,0.3-0.3,0.3-0.5l0.3-1.5l0.3-1.4l0.2,0.4l2.1,3.5l0.1,0.1c0.1,0.1,0.2,0.2,0.3,0.3c0.1,0,0.2,0,0.3,0
		c0.1,0,0.1,0,0.2,0c0.3-0.1,0.5-0.2,0.7-0.3l0.6-0.4c0.1-0.1,0.3-0.2,0.3-0.3c0-0.1,0-0.1,0.1-0.2c0-0.1,0-0.1,0-0.2
		c0-0.1,0-0.1-0.1-0.2l-1-1.6l-1-1.7c0.1-0.1,0.3-0.1,0.4-0.2c0.5-0.3,1-0.7,1.5-1.2l0.1-0.2L85.2,6l0.1-0.1l0.1-0.1
		c0.1-0.2,0.2-0.4,0.3-0.6c0-0.1,0.1-0.2,0.1-0.4c0-0.1,0-0.2,0.1-0.4c0-0.1,0-0.3,0-0.4c0-0.1,0-0.3,0-0.4c0-0.1,0-0.3,0-0.4l0-0.1
		l0-0.1l0-0.2c0-0.1-0.1-0.2-0.1-0.3c-0.2-0.5-0.5-0.9-1-1.2c-0.5-0.4-1.1-0.7-1.8-0.8c-0.4-0.1-0.8-0.1-1.1-0.2
		c-0.6,0-1.2,0-1.7,0.1c-0.5,0.1-1.1,0.2-1.6,0.4c-0.1,0-0.2,0.1-0.3,0.2C78,1,78,1.1,77.9,1.2c-0.4,0.6-0.6,1.3-0.6,2
		c0,0.1,0,0.2,0,0.3c0,0,0,0.1,0.1,0.1c0,0,0.1,0.1,0.2,0.1c0.1,0,0.2,0,0.4,0l0.4-0.1l0.5-0.1l-1,3.5l-0.2,0.6L77.3,9.1L77.3,9.1z
		 M81.2,5.8c0.1-0.5,0.3-1,0.4-1.5c0-0.1,0-0.1,0-0.2c0-0.1-0.1-0.2-0.2-0.3c-0.1-0.1-0.3-0.2-0.4-0.2l-1.2-0.4
		C80.4,3.1,81,3,81.6,3C82,3,82.4,3,82.7,3.2c0.2,0.1,0.4,0.3,0.5,0.5s0.1,0.4,0,0.7c-0.1,0.3-0.2,0.5-0.5,0.8
		C82.3,5.5,81.8,5.7,81.2,5.8L81.2,5.8z"/>
	<path d="M66.2,9.6c-0.1,0.2-0.1,0.4-0.1,0.7c0,0.1,0.1,0.3,0.1,0.4c0.2,0.3,0.5,0.6,0.8,0.8l0.6,0.5c0.1,0.1,0.3,0.2,0.4,0.3
		c0.2,0,0.4,0.1,0.6,0.1c1.4,0,2.8-0.2,4.1-0.8c0.7-0.3,1.3-0.7,1.8-1.3c0.1-0.2,0.3-0.3,0.4-0.5c0.2-0.3,0.3-0.6,0.4-1
		c0.1-0.5,0-1-0.2-1.5c-0.2-0.4-0.4-0.7-0.8-1c0.3-0.1,0.5-0.2,0.7-0.4l0.2-0.1c0.1-0.1,0.1-0.1,0.2-0.2c0.3-0.2,0.5-0.5,0.7-0.7
		c0.3-0.5,0.5-1,0.5-1.6c0,0,0-0.1,0-0.1c0-0.5-0.2-0.9-0.4-1.3C75.8,1.4,75.5,1,75,0.8l-0.1,0c-1-0.5-2.1-0.8-3.1-0.8
		c-1.1,0-2.2,0.1-3.3,0.4c-0.3,0.1-0.5,0.2-0.8,0.3c-0.1,0.1-0.2,0.1-0.3,0.2c-0.1,0.2-0.2,0.3-0.3,0.5c-0.1,0.2-0.2,0.5-0.3,0.7
		c-0.1,0.3-0.2,0.6-0.3,1c0,0.1-0.1,0.2-0.1,0.3v0.1c0,0.1,0,0.1,0.1,0.2c0,0,0.1,0.1,0.1,0.1c0.1,0,0.1,0,0.2,0
		c0.4-0.1,0.8-0.2,1.2-0.4C67.5,5.5,66.8,7.6,66.2,9.6L66.2,9.6L66.2,9.6z M71.1,5.3c0.1-0.4,0.3-0.9,0.4-1.3c0.1-0.1,0-0.3-0.1-0.4
		c-0.1-0.1-0.3-0.1-0.4-0.2l-1.6-0.3c0.5-0.1,1-0.3,1.5-0.3c0.5,0,0.9,0,1.4,0c0.2,0,0.4,0.1,0.6,0.2c0.2,0.1,0.3,0.2,0.3,0.4
		c0,0.2,0,0.4-0.1,0.6c-0.1,0.3-0.3,0.5-0.5,0.6C72.3,5,71.7,5.2,71.1,5.3L71.1,5.3L71.1,5.3z M69.6,9.4c0.4-1.2,0.8-2.5,1.3-3.7
		l0.3,1.6c0,0.1,0.1,0.3,0.2,0.4s0.2,0.2,0.4,0.2C71.9,7.9,72,8.1,72,8.2c0,0.2,0,0.4-0.2,0.6C71.6,9,71.3,9.2,71,9.2
		C70.6,9.4,70.1,9.4,69.6,9.4L69.6,9.4z"/>
	<path d="M61.1,1.5l0.1-0.4c0-0.1,0.1-0.3,0.1-0.4c0-0.1,0-0.2,0-0.3c0-0.1-0.1-0.2-0.1-0.2C61.1,0.1,61,0,60.9,0
		c-0.2,0-0.4,0-0.6,0c-1,0.1-2,0.6-2.8,1.2c-1.5,1-2.6,2.5-3.3,4.2c-0.4,0.9-0.6,1.9-0.7,2.9c0,0.6,0,1.3,0.1,1.9
		c0.1,0.6,0.4,1.2,0.8,1.7c0.4,0.5,0.9,1,1.6,1.2c0.9,0.4,2,0.5,3,0.2c1-0.3,1.9-0.7,2.7-1.4c0.6-0.4,1.1-1,1.5-1.6
		c1.1-1.6,1.9-3.4,2.1-5.4c0.1-1.3,0-2.6-0.5-3.9c-0.1-0.3-0.3-0.6-0.5-0.8c-0.1-0.1-0.2-0.2-0.3-0.2c-0.1,0-0.2-0.1-0.3-0.1
		c-0.1,0-0.2,0-0.3,0c-0.1,0-0.2,0.1-0.3,0.2L61.1,1.5L61.1,1.5z M61,2.4c0.2,0.4,0.3,0.9,0.3,1.4c0,0.9,0,1.8-0.2,2.6
		c-0.2,0.9-0.5,1.7-1,2.5c-0.2,0.3-0.4,0.5-0.6,0.8c-0.2,0.2-0.3,0.3-0.5,0.5c-0.1,0.1-0.2,0.1-0.3,0.1c-0.2,0.1-0.4,0.1-0.5,0
		s-0.3-0.2-0.4-0.3c-0.1-0.2-0.2-0.4-0.2-0.7c0-0.1,0-0.2,0-0.3c0-0.5,0-1,0.1-1.4c0.2-1.1,0.7-2.1,1.5-2.9c0.4-0.5,0.9-0.9,1.4-1.2
		c0.1-0.1,0.3-0.3,0.3-0.4c0-0.1,0.1-0.2,0.1-0.3L61,2.4L61,2.4z"/>
	<path d="M45.9,4.1l0,0.1l-0.1,0.2l-0.7,2l-1.3,4l-1,3c-0.1,0.3-0.2,0.5-0.2,0.8c0,0.1,0,0.1,0,0.2c0,0,0,0.1,0,0.2
		c0,0,0,0.1,0.1,0.1c0.1,0.1,0.1,0.1,0.2,0.2c0.2,0.1,0.4,0.1,0.6,0.1c0.7,0,1.5,0,2.2,0c0.3,0,0.5,0,0.8-0.1c0.2,0,0.4-0.1,0.6-0.2
		c0.2-0.1,0.4-0.3,0.4-0.6l2.1-6.9l0.5-1.7c0.1-0.2,0.1-0.3,0-0.5c0,0-0.1-0.1-0.1-0.1c0,0-0.1-0.1-0.1-0.1
		c-0.1-0.1-0.2-0.1-0.3-0.2c0,0-0.1,0-0.2-0.1L47.8,4l0.4,0l3.6-0.2c0.3,0,0.5,0,0.7,0c0.2,0,0.4-0.1,0.6-0.2
		c0.1-0.1,0.2-0.2,0.3-0.3c0.2-0.3,0.3-0.7,0.4-1C53.9,1.8,54,1.4,54,1c0-0.1,0-0.2,0-0.3c0-0.1,0-0.1-0.1-0.2
		c-0.1-0.1-0.1-0.1-0.2-0.1c-0.2,0-0.3,0-0.5,0l-9.6,0.5c-0.2,0-0.4,0-0.5,0.1c-0.2,0-0.4,0.1-0.5,0.3c-0.1,0.1-0.2,0.2-0.3,0.3
		c-0.1,0.2-0.2,0.4-0.3,0.6c0,0.1-0.1,0.3-0.1,0.4l-0.1,0.3c0,0.1-0.1,0.3-0.1,0.4c0,0.1,0,0.2,0,0.3c0,0.1,0,0.2,0,0.3
		c0,0.1,0,0.1,0.1,0.2c0,0.1,0.1,0.1,0.1,0.1c0.1,0,0.1,0.1,0.2,0.1c0.2,0.1,0.4,0.1,0.6,0.1L44,4.3l1.3-0.1L45.9,4.1L45.9,4.1z"/>
	<path d="M26.7,2.2c-0.2,0.2-0.3,0.4-0.4,0.7c-0.8,1.8-1.5,3.5-2.1,5.4L23.9,9c-0.4,1.3-0.8,2.7-1.1,4c-0.1,0.5-0.2,1-0.1,1.5
		s0.3,1,0.5,1.3c0.2,0.3,0.5,0.5,0.8,0.7c0.2,0.1,0.4,0.2,0.5,0.3c0.4,0.2,0.8,0.4,1.2,0.5c0.4,0.1,0.8,0.2,1.3,0.2
		c0.3,0,0.5,0,0.8,0c0.2,0,0.5,0,0.7,0c0.8,0,1.7-0.2,2.5-0.4c0.6-0.2,1.2-0.4,1.8-0.7c0.5-0.3,1-0.6,1.4-1c0.2-0.2,0.3-0.3,0.5-0.5
		c1.2-1.4,2.2-3,2.8-4.7l1.2-3.4L40,3.5c0.1-0.4,0.3-0.9,0.5-1.3c0.1-0.1,0.1-0.3,0.1-0.4c0-0.2-0.1-0.3-0.2-0.4
		c-0.3-0.1-0.5-0.2-0.8-0.3C38.9,1,38.1,1,37.3,1c-0.2,0-0.3,0-0.5,0c-0.2,0-0.4,0.1-0.5,0.2c-0.1,0.1-0.2,0.1-0.3,0.2
		c-0.2,0.3-0.4,0.6-0.5,0.9l-1,2.6c-0.6,1.5-1.1,2.9-1.6,4.4c-0.3,0.8-0.6,1.5-1,2.2c-0.2,0.5-0.5,1-0.9,1.3c-0.3,0.3-0.6,0.5-1,0.7
		c-0.3,0.1-0.7,0.1-1,0c-0.2-0.1-0.4-0.2-0.5-0.4c-0.1-0.1-0.1-0.3-0.1-0.4c0-0.6,0.2-1.1,0.4-1.6l0.5-1.4l0.1-0.2
		c0.5-1.4,1-2.8,1.6-4.3l0.8-2.3C31.9,2.8,32,2.6,32,2.3c0-0.1,0-0.2-0.1-0.3C31.8,2,31.8,2,31.7,2c-0.2-0.1-0.4-0.1-0.5-0.1
		c-1.2-0.1-2.4-0.1-3.6,0.1C27.3,1.9,27.2,2,27,2C26.9,2.1,26.8,2.1,26.7,2.2L26.7,2.2z"/>
	<path d="M1.3,18.4c0.2,0,0.4,0,0.6-0.1c-0.6,0.9-1.1,1.9-1.6,2.9c0,0.1-0.1,0.2-0.1,0.3c0,0.1,0,0.2,0,0.3c0,0.1,0.1,0.1,0.1,0.2
		c0.1,0.1,0.3,0.2,0.4,0.2c1.3,0.2,2.6,0.2,3.9,0c0.5-0.1,0.9-0.2,1.3-0.4c0.3-0.2,0.6-0.5,0.8-0.9L9,17.1l1.9-0.3
		c0.3,0,0.5-0.1,0.8-0.2c0.1-0.1,0.3-0.1,0.4-0.2c0.1-0.1,0.3-0.3,0.3-0.4l1.2-1.9v5.1c0,0.2,0,0.5,0.2,0.6c0.1,0.1,0.2,0.2,0.3,0.2
		c0.3,0.1,0.5,0.1,0.8,0.1c1.3-0.1,2.5-0.4,3.7-0.9c0.2-0.1,0.4-0.3,0.6-0.5c0.1-0.1,0.2-0.3,0.2-0.4c0.1-0.2,0.1-0.5,0.1-0.7
		l0.1-0.7c0.1-1.4,0.2-2.8,0.2-4.2c0-0.9,0-1.8-0.1-2.6c-0.1-1.6-0.3-3.3-0.6-4.9c-0.1-0.4-0.1-0.8-0.3-1.2
		c-0.1-0.2-0.2-0.3-0.3-0.4c-0.1-0.1-0.2-0.1-0.3-0.2c-0.1-0.1-0.3-0.1-0.4-0.1c-0.2,0-0.4-0.1-0.7-0.1c-1.1,0-2.2,0-3.4,0
		c-0.3,0-0.6,0.1-0.9,0.1c-0.3,0.1-0.7,0.3-1,0.5c-0.2,0.2-0.4,0.4-0.6,0.6l-0.1,0.1l-0.3,0.4L9.8,6.2L8.9,7.4
		c-1.4,1.9-2.6,3.8-3.8,5.8l-0.2,0.4l-1,0.2c-0.2,0-0.3,0-0.5,0.1c-0.3,0-0.6,0.2-0.9,0.3c-0.3,0.1-0.5,0.4-0.7,0.6
		c-0.2,0.2-0.3,0.5-0.4,0.7c-0.3,0.7-0.5,1.4-0.8,2.1c0,0.1-0.1,0.3-0.1,0.4c0,0.1,0,0.1,0.1,0.2c0,0.1,0.1,0.1,0.2,0.1
		C1,18.4,1.1,18.4,1.3,18.4L1.3,18.4L1.3,18.4z M11.1,12.8c0.9-2,2-3.9,3.2-5.7c0,1.8-0.1,3.5-0.3,5.3L11.1,12.8L11.1,12.8z"/>
	<polygon points="48.8,19.7 50.7,19.7 50.5,20.6 48.6,20.6 	"/>
	<path d="M57,21.7h-1.3l0-0.8h-1.3L54,21.7h-1.3l2.5-4.5h1.4L57,21.7L57,21.7z M55.7,20.2c0-0.7,0-1.3,0-1.9h0
		c-0.3,0.6-0.5,1.3-0.9,1.9L55.7,20.2L55.7,20.2z"/>
	<polygon points="58.7,17.2 60,17.2 59.2,20.7 60.1,20.7 59.9,21.7 57.7,21.7 	"/>
	<polygon points="61.2,17.2 64.2,17.2 63.9,18.2 63.1,18.2 62.3,21.7 61,21.7 61.8,18.2 61,18.2 	"/>
	<polygon points="67.1,17.2 68.3,17.2 67.2,21.7 66,21.7 	"/>
	<path d="M74.4,21.7h-1.3l0-0.8h-1.3l-0.4,0.8h-1.3l2.5-4.5h1.4L74.4,21.7L74.4,21.7z M73,20.2c0-0.7,0-1.3,0-1.9h0
		c-0.3,0.6-0.5,1.3-0.9,1.9H73L73,20.2z"/>
	<path d="M75.9,17.2h1.3l-0.8,3.2c0,0.2,0,0.3,0.1,0.4c0.1,0.1,0.2,0.1,0.4,0.1s0.3,0,0.4-0.1c0.1-0.1,0.2-0.2,0.2-0.4l0.7-3.2h1.3
		l-0.7,3c-0.1,0.4-0.2,0.7-0.4,1c-0.2,0.3-0.4,0.4-0.7,0.5c-0.3,0.1-0.6,0.2-1.1,0.2c-0.7,0-1.1-0.1-1.3-0.4s-0.2-0.8-0.1-1.4
		L75.9,17.2L75.9,17.2z"/>
	<polygon points="80.3,17.2 83.2,17.2 83,18.2 82.1,18.2 81.3,21.7 80,21.7 80.9,18.2 80,18.2 	"/>
	<path d="M84.6,21.8c-0.7,0-1.1-0.2-1.4-0.6c-0.3-0.4-0.3-1-0.1-1.8c0.2-0.7,0.5-1.3,0.9-1.7c0.4-0.4,1-0.6,1.6-0.6
		c0.7,0,1.1,0.2,1.4,0.6c0.3,0.4,0.3,1,0.1,1.8c-0.2,0.8-0.5,1.4-0.9,1.8C85.8,21.6,85.2,21.8,84.6,21.8L84.6,21.8z M85.4,18.1
		c-0.5,0-0.8,0.4-1,1.3c-0.1,0.6-0.2,0.9-0.1,1.1c0.1,0.2,0.2,0.3,0.4,0.3c0.2,0,0.4-0.1,0.6-0.3c0.2-0.2,0.3-0.6,0.4-1.1
		C86,18.5,85.9,18.1,85.4,18.1L85.4,18.1z"/>
	<path d="M88.6,17.2h1.2c0.8,0,1.4,0.2,1.7,0.6s0.4,0.9,0.2,1.7c-0.1,0.5-0.3,1-0.6,1.3c-0.3,0.3-0.6,0.6-1,0.7s-0.8,0.2-1.3,0.2
		h-1.2L88.6,17.2L88.6,17.2z M89.6,18.2L89,20.8c0.4,0,0.7-0.1,0.9-0.3s0.4-0.5,0.5-1c0.1-0.3,0.1-0.5,0.1-0.7
		c0-0.2-0.1-0.3-0.1-0.4c-0.1-0.1-0.2-0.2-0.3-0.2C89.9,18.2,89.8,18.2,89.6,18.2L89.6,18.2z"/>
	<polygon points="93.1,17.2 95.6,17.2 95.4,18.2 94.1,18.2 93.9,19 95,19 94.8,19.9 93.7,19.9 93.5,20.8 94.8,20.8 94.5,21.7 
		92,21.7 	"/>
	<polygon points="96.6,17.2 97.8,17.2 97,20.7 98,20.7 97.7,21.7 95.5,21.7 	"/>
	<polygon points="99.6,17.2 102.1,17.2 101.9,18.2 100.6,18.2 100.5,19 101.6,19 101.3,19.9 100.2,19.9 100,20.8 101.3,20.8 
		101.1,21.7 98.6,21.7 	"/>
	<path d="M105.3,17.2h1.2l-0.8,3.3h-1.2L105.3,17.2L105.3,17.2z M104.2,21.3c0-0.2,0.1-0.3,0.3-0.4c0.2-0.1,0.3-0.2,0.5-0.2
		c0.2,0,0.3,0,0.4,0.2c0.1,0.1,0.1,0.2,0.1,0.4s-0.1,0.3-0.3,0.4c-0.2,0.1-0.3,0.2-0.5,0.2c-0.2,0-0.3-0.1-0.4-0.2
		C104.2,21.6,104.2,21.4,104.2,21.3L104.2,21.3z"/>
	<path d="M107.8,17.2h1.2l-0.8,3.3H107L107.8,17.2L107.8,17.2z M106.8,21.3c0-0.2,0.1-0.3,0.3-0.4c0.2-0.1,0.3-0.2,0.5-0.2
		s0.3,0,0.4,0.2c0.1,0.1,0.1,0.2,0.1,0.4c0,0.2-0.1,0.3-0.3,0.4c-0.2,0.1-0.3,0.2-0.5,0.2s-0.3-0.1-0.4-0.2
		C106.8,21.6,106.7,21.4,106.8,21.3L106.8,21.3z"/>
	<path d="M110.3,17.2h1.2l-0.8,3.3h-1.2L110.3,17.2L110.3,17.2z M109.3,21.3c0-0.2,0.1-0.3,0.3-0.4c0.2-0.1,0.3-0.2,0.5-0.2
		s0.3,0,0.4,0.2c0.1,0.1,0.1,0.2,0.1,0.4c0,0.2-0.1,0.3-0.3,0.4c-0.2,0.1-0.3,0.2-0.5,0.2s-0.3-0.1-0.4-0.2
		C109.3,21.6,109.3,21.4,109.3,21.3L109.3,21.3z"/>
</g>
</svg>
